<?xml version="1.0" encoding="utf-8"?>
<!-- Generator: Adobe Illustrator 27.0.0, SVG Export Plug-In . SVG Version: 6.00 Build 0)  -->
<svg version="1.1" id="Layer_1" xmlns="http://www.w3.org/2000/svg" xmlns:xlink="http://www.w3.org/1999/xlink" x="0px" y="0px"
	 viewBox="0 0 512 512" style="enable-background:new 0 0 512 512;" xml:space="preserve">
<style type="text/css">
	.st0{fill:#3185B8;}
	.st1{fill:#61A5CE;}
	.st2{fill:#EAE9E6;}
	.st3{fill:#3285B7;}
</style>
<g id="XMLID_1_">
	<path id="XMLID_3_" class="st0" d="M465.71,30.48c-3.09-2.52-26.79-15.29-26.79-15.29l-25.39,14.73l0,0l25.39-14.73L413.53,0.04
		v29.88l-26.51-14.87c0,0-21.6,12.62-32.12,18.8c-13.19,7.57-45.73,26.93-45.73,26.93v28.62l-26.79,69.72v37.87l-18.8,10.94
		l-7.43,19.5L203.54,90.8V60.78L98.61-0.1L46.15,30.2l0,0v30.86l32.68,78.69l19.92,11.64v35.91l78.69,191.33l78.69,45.03v0.28
		l78.55-45.45l131.3-318.14L465.71,30.48"/>
	<polyline id="XMLID_4_" class="st0" points="256.14,423.95 177.31,378.92 98.61,187.59 98.61,151.68 78.69,140.03 46.01,61.2 
		46.01,30.34 71.82,45.49 71.82,75.79 98.61,91.36 98.61,60.78 150.79,91.08 153.32,120.96 229.35,318.04 282.09,348.76 
		282.09,409.08 256,393.79 256.14,423.95 	"/>
	<polyline id="XMLID_5_" class="st1" points="203.4,90.94 256,227.42 256,302.75 229.21,317.9 153.32,120.68 150.79,91.08 
		203.4,60.92 203.4,90.94 	"/>
	<polyline id="XMLID_6_" class="st1" points="71.82,45.49 71.82,75.79 98.61,60.78 71.82,45.49 	"/>
	<polyline id="XMLID_7_" class="st2" points="98.61,91.36 98.61,60.78 71.82,75.79 98.61,91.36 	"/>
	<polyline id="XMLID_8_" class="st0" points="256,302.75 282.23,317.76 311.55,244.26 334.13,257.58 334.13,187.17 341.43,170.05 
		360.64,181.27 360.64,151.54 334.41,136.39 360.78,121.1 334.83,106.09 334.83,75.79 309.02,60.92 309.02,89.39 282.37,159.11 
		282.37,196.98 263.57,207.93 256,227.42 256,302.75 	"/>
	<polyline id="XMLID_9_" class="st1" points="255.58,333.61 282.09,348.76 281.95,409.08 334.69,378.64 465.99,60.64 465.71,30.48 
		387.02,75.79 387.02,136.39 360.64,151.54 360.64,181.27 341.43,170.05 334.13,187.17 334.13,257.44 297.52,279.05 282.23,317.76 
		255.58,333.61 	"/>
	<polyline id="XMLID_10_" class="st2" points="150.65,121.24 177.03,105.95 177.03,136.25 150.65,121.24 	"/>
	<polyline id="XMLID_11_" class="st0" points="177.03,136.25 203.26,151.12 203.26,121.24 177.03,105.95 177.03,136.25 	"/>
	<polyline id="XMLID_12_" class="st1" points="124.7,196.56 124.7,227.14 151.08,211.99 124.7,196.56 	"/>
	<polyline id="XMLID_13_" class="st2" points="177.45,227.28 150.93,242.71 124.7,227.14 151.08,211.99 177.45,227.28 	"/>
	<polyline id="XMLID_14_" class="st1" points="177.17,318.18 177.17,349.04 203.68,333.61 177.17,318.18 	"/>
	<polyline id="XMLID_15_" class="st2" points="229.35,378.5 256.14,394.07 256.28,362.79 229.35,378.5 	"/>
	<polyline id="XMLID_16_" class="st1" points="256,424.23 256.14,394.07 281.95,409.08 256,424.23 	"/>
	<polyline id="XMLID_17_" class="st2" points="256,302.75 229.21,317.9 255.58,333.61 282.23,317.76 256,302.75 	"/>
	<polyline id="XMLID_18_" class="st0" points="387.02,136.39 387.02,75.79 360.92,61.06 360.92,91.22 334.83,106.09 387.02,136.39 	
		"/>
	<polyline id="XMLID_19_" class="st2" points="334.41,136.39 360.78,121.1 387.02,136.39 360.64,151.54 334.41,136.39 	"/>
	<polyline id="XMLID_20_" class="st1" points="334.83,106.09 360.92,91.22 360.92,61.06 334.83,75.79 334.83,106.09 	"/>
	<polyline id="XMLID_21_" class="st0" points="413.53,29.92 413.53,0.04 438.92,15.19 413.53,29.92 	"/>
	<path id="XMLID_22_" class="st2" d="M465.71,30.48l-78.69,45.45l-26.09-14.87l-26.09,14.87l-25.67-15.01
		c0,0,32.54-19.36,45.73-26.93c10.52-6.03,32.12-18.8,32.12-18.8l26.51,14.87l25.39-14.73C438.92,15.19,462.62,27.95,465.71,30.48
		C458.56,34.69,465.71,30.48,465.71,30.48"/>
	<polyline id="XMLID_23_" class="st2" points="203.4,60.92 150.79,91.08 46.01,30.34 98.47,0.04 203.4,60.92 	"/>
	<polyline id="XMLID_24_" class="st0" points="439.34,75.09 439.34,45.63 413.67,60.5 439.34,75.09 	"/>
	<polyline id="XMLID_25_" class="st0" points="361.63,212.13 387.16,197.41 387.16,226.86 361.63,212.13 	"/>
	<polyline id="XMLID_26_" class="st2" points="308.32,333.33 308.32,363.77 334.97,348.34 308.32,333.33 	"/>
	<polyline id="XMLID_27_" class="st0" points="335.11,348.34 334.83,318.18 308.32,333.33 335.11,348.34 	"/>
	<path id="XMLID_38_" class="st3" d="M74.63,511.06h11.36l21.6-65.37h-8.14l-19.22,58.07l-19.22-58.07h-8.14L74.63,511.06z
		 M140.27,445.69h-11.36l-22.16,65.37h8.56l5.33-15.71h27.77l5.47,15.71h8.56L140.27,445.69z M146.17,487.91h-23.43l11.64-36.19
		L146.17,487.91z M179.69,464.35c0-8.84,3.23-12.06,14.03-12.06c5.47,0,11.36,0.56,17.53,1.68l0.98-7.29
		c-6.03-1.4-12.62-2.1-18.24-2.1c-16.27,0-22.86,6.03-22.86,19.36v28.76c0,12.06,5.05,19.22,21.74,19.22
		c6.73,0,14.31-0.98,20.76-2.81v-28.2h-8.14v22.16c-4.49,0.84-8.84,1.12-12.34,1.12c-11.22,0-13.61-3.79-13.61-12.06v-27.77H179.69z
		 M270.31,511.06h9.68l-16.97-24.69c7.57-2.1,10.38-7.43,10.38-15.29v-9.4c0-9.96-4.91-16.13-18.94-16.13h-24.97v65.37h8.42v-23.71
		h15.99L270.31,511.06z M264.98,461.82v9.4c0,6.45-2.81,8.7-10.8,8.7H237.9v-26.65h16.27C262.17,453.27,264.98,455.37,264.98,461.82
		z M320.25,445.69h-11.36l-22.16,65.37h8.56l5.33-15.71h27.77l5.47,15.71h8.56L320.25,445.69z M326.28,487.91h-23.43l11.64-36.19
		L326.28,487.91z M389.96,511.06h11.64v-65.37h-8.14v55.97l-28.48-55.97h-11.64v65.37h8v-55.69L389.96,511.06z M431.48,511.06h8.42
		v-57.79h19.5v-7.57h-47.55v7.57h19.5v57.79H431.48z"/>
</g>
</svg>
